<svg width="154" height="28" viewBox="0 0 154 28" fill="none" xmlns="http://www.w3.org/2000/svg">
<path d="M38.5 8.02884H43.9927V23.7625H47.278V8.02884H52.7707V5.00017H38.5V8.02884Z" fill="#1C2434"/>
<path d="M56.4374 24.0962C58.4137 24.0962 60.1334 23.1978 60.6724 21.8888L60.9034 23.7625H63.6497V16.0625C63.6497 12.5462 61.5451 10.6982 58.1314 10.6982C54.6921 10.6982 52.4334 12.4948 52.4334 15.2412H55.1027C55.1027 13.9065 56.1294 13.1365 57.9774 13.1365C59.5687 13.1365 60.5954 13.8295 60.5954 15.5492V15.8315L56.7967 16.1138C53.7937 16.3448 52.0997 17.8078 52.0997 20.1435C52.0997 22.5305 53.7424 24.0962 56.4374 24.0962ZM57.4641 21.7348C56.0524 21.7348 55.2824 21.1702 55.2824 20.0152C55.2824 18.9885 56.0267 18.3468 57.9774 18.1672L60.6211 17.9618V18.6292C60.6211 20.5798 59.3891 21.7348 57.4641 21.7348Z" fill="#1C2434"/>
<path d="M68.2916 8.54217C69.3182 8.54217 70.1653 7.69517 70.1653 6.64284C70.1653 5.5905 69.3182 4.76917 68.2916 4.76917C67.2136 4.76917 66.3666 5.5905 66.3666 6.64284C66.3666 7.69517 67.2136 8.54217 68.2916 8.54217ZM66.7259 23.7625H69.8572V11.0832H66.7259V23.7625Z" fill="#1C2434"/>
<path d="M76.2495 23.7625V4.6665H73.1438V23.7625H76.2495Z" fill="#1C2434"/>
<path d="M81.6132 23.7625L83.1275 19.4248H90.1345L91.6489 23.7625H95.1139L88.3379 5.00017H84.9755L78.1995 23.7625H81.6132ZM86.2332 10.5955C86.4129 10.0822 86.5669 9.5175 86.6439 9.15817C86.6952 9.54317 86.8749 10.1078 87.0289 10.5955L89.1849 16.6528H84.1029L86.2332 10.5955Z" fill="#1C2434"/>
<path d="M101.638 24.0962C103.563 24.0962 105.206 23.2492 105.976 21.7862L106.181 23.7625H109.056V4.6665H105.95V12.7002C105.155 11.4425 103.589 10.6982 101.818 10.6982C97.9937 10.6982 95.6837 13.5215 95.6837 17.4742C95.6837 21.4012 97.9681 24.0962 101.638 24.0962ZM102.331 21.2215C100.15 21.2215 98.8151 19.6302 98.8151 17.3715C98.8151 15.1128 100.15 13.4958 102.331 13.4958C104.513 13.4958 105.925 15.0872 105.925 17.3715C105.925 19.6558 104.513 21.2215 102.331 21.2215Z" fill="#1C2434"/>
<path d="M115.451 23.7625V16.5758C115.451 14.5225 116.657 13.5472 118.146 13.5472C119.634 13.5472 120.584 14.4968 120.584 16.2678V23.7625H123.715V16.5758C123.715 14.4968 124.87 13.5215 126.385 13.5215C127.873 13.5215 128.849 14.4712 128.849 16.2935V23.7625H131.954V15.4722C131.954 12.5462 130.26 10.6982 127.18 10.6982C125.255 10.6982 123.767 11.6478 123.125 13.1108C122.458 11.6478 121.123 10.6982 119.198 10.6982C117.376 10.6982 116.092 11.5195 115.451 12.5718L115.194 11.0832H112.319V23.7625H115.451Z" fill="#1C2434"/>
<path d="M136.594 8.54217C137.621 8.54217 138.468 7.69517 138.468 6.64284C138.468 5.5905 137.621 4.76917 136.594 4.76917C135.516 4.76917 134.669 5.5905 134.669 6.64284C134.669 7.69517 135.516 8.54217 136.594 8.54217ZM135.028 23.7625H138.16V11.0832H135.028V23.7625Z" fill="#1C2434"/>
<path d="M144.526 23.7625V16.9352C144.526 14.8818 145.707 13.5472 147.632 13.5472C149.249 13.5472 150.301 14.5738 150.301 16.7042V23.7625H153.433V15.9598C153.433 12.6745 151.79 10.6982 148.607 10.6982C146.888 10.6982 145.348 11.4425 144.552 12.7258L144.295 11.0832H141.395V23.7625H144.526Z" fill="#1C2434"/>
<path d="M0 7.36842C0 3.29895 3.29895 0 7.36842 0H20.6316C24.701 0 28 3.29895 28 7.36842V20.6316C28 24.701 24.701 28 20.6316 28H7.36842C3.29895 28 0 24.701 0 20.6316V7.36842Z" fill="#3C50E0"/>
<g filter="url(#filter0_d_662_22068)">
<path d="M7.37891 7.36834C7.37891 6.55444 8.0387 5.89465 8.85259 5.89465C9.66648 5.89465 10.3263 6.55444 10.3263 7.36834V20.6315C10.3263 21.4454 9.66648 22.1052 8.85259 22.1052C8.0387 22.1052 7.37891 21.4454 7.37891 20.6315V7.36834Z" fill="white"/>
</g>
<g opacity="0.9" filter="url(#filter1_d_662_22068)">
<path d="M12.9121 13.263C12.9121 12.4491 13.5719 11.7893 14.3858 11.7893C15.1997 11.7893 15.8595 12.4491 15.8595 13.263V20.6314C15.8595 21.4453 15.1997 22.1051 14.3858 22.1051C13.5719 22.1051 12.9121 21.4453 12.9121 20.6314V13.263Z" fill="white"/>
</g>
<g opacity="0.7" filter="url(#filter2_d_662_22068)">
<path d="M18.4297 9.57854C18.4297 8.76465 19.0895 8.10486 19.9034 8.10486C20.7173 8.10486 21.3771 8.76465 21.3771 9.57854V20.6312C21.3771 21.4451 20.7173 22.1049 19.9034 22.1049C19.0895 22.1049 18.4297 21.4451 18.4297 20.6312V9.57854Z" fill="white"/>
</g>
<defs>
<filter id="filter0_d_662_22068" x="6.37891" y="5.39465" width="4.94727" height="18.2106" filterUnits="userSpaceOnUse" color-interpolation-filters="sRGB">
<feFlood flood-opacity="0" result="BackgroundImageFix"/>
<feColorMatrix in="SourceAlpha" type="matrix" values="0 0 0 0 0 0 0 0 0 0 0 0 0 0 0 0 0 0 127 0" result="hardAlpha"/>
<feOffset dy="0.5"/>
<feGaussianBlur stdDeviation="0.5"/>
<feComposite in2="hardAlpha" operator="out"/>
<feColorMatrix type="matrix" values="0 0 0 0 0 0 0 0 0 0 0 0 0 0 0 0 0 0 0.12 0"/>
<feBlend mode="normal" in2="BackgroundImageFix" result="effect1_dropShadow_662_22068"/>
<feBlend mode="normal" in="SourceGraphic" in2="effect1_dropShadow_662_22068" result="shape"/>
</filter>
<filter id="filter1_d_662_22068" x="11.9121" y="11.2893" width="4.94727" height="12.3158" filterUnits="userSpaceOnUse" color-interpolation-filters="sRGB">
<feFlood flood-opacity="0" result="BackgroundImageFix"/>
<feColorMatrix in="SourceAlpha" type="matrix" values="0 0 0 0 0 0 0 0 0 0 0 0 0 0 0 0 0 0 127 0" result="hardAlpha"/>
<feOffset dy="0.5"/>
<feGaussianBlur stdDeviation="0.5"/>
<feComposite in2="hardAlpha" operator="out"/>
<feColorMatrix type="matrix" values="0 0 0 0 0 0 0 0 0 0 0 0 0 0 0 0 0 0 0.12 0"/>
<feBlend mode="normal" in2="BackgroundImageFix" result="effect1_dropShadow_662_22068"/>
<feBlend mode="normal" in="SourceGraphic" in2="effect1_dropShadow_662_22068" result="shape"/>
</filter>
<filter id="filter2_d_662_22068" x="17.4297" y="7.60486" width="4.94727" height="16" filterUnits="userSpaceOnUse" color-interpolation-filters="sRGB">
<feFlood flood-opacity="0" result="BackgroundImageFix"/>
<feColorMatrix in="SourceAlpha" type="matrix" values="0 0 0 0 0 0 0 0 0 0 0 0 0 0 0 0 0 0 127 0" result="hardAlpha"/>
<feOffset dy="0.5"/>
<feGaussianBlur stdDeviation="0.5"/>
<feComposite in2="hardAlpha" operator="out"/>
<feColorMatrix type="matrix" values="0 0 0 0 0 0 0 0 0 0 0 0 0 0 0 0 0 0 0.12 0"/>
<feBlend mode="normal" in2="BackgroundImageFix" result="effect1_dropShadow_662_22068"/>
<feBlend mode="normal" in="SourceGraphic" in2="effect1_dropShadow_662_22068" result="shape"/>
</filter>
</defs>
</svg>
